<svg width="46" height="46" viewBox="0 0 46 46" fill="none" xmlns="http://www.w3.org/2000/svg">
<path d="M41.7938 19.2462H40.2499V19.1667H22.9999V26.8333H33.832C32.2517 31.2963 28.0053 34.5 22.9999 34.5C16.649 34.5 11.4999 29.3509 11.4999 23C11.4999 16.6491 16.649 11.5 22.9999 11.5C25.9315 11.5 28.5985 12.6059 30.6292 14.4124L36.0505 8.99109C32.6273 5.80079 28.0484 3.83334 22.9999 3.83334C12.4151 3.83334 3.83325 12.4152 3.83325 23C3.83325 33.5848 12.4151 42.1667 22.9999 42.1667C33.5847 42.1667 42.1666 33.5848 42.1666 23C42.1666 21.7149 42.0343 20.4604 41.7938 19.2462Z" fill="#FFC107"/>
<path d="M6.04321 14.0789L12.3404 18.6971C14.0443 14.4785 18.1709 11.5 23 11.5C25.9315 11.5 28.5985 12.6059 30.6293 14.4124L36.0505 8.99109C32.6274 5.80079 28.0485 3.83334 23 3.83334C15.638 3.83334 9.25363 7.98963 6.04321 14.0789Z" fill="#FF3D00"/>
<path d="M22.9999 42.1667C27.9506 42.1667 32.4491 40.272 35.8502 37.191L29.9181 32.1713C27.9291 33.6839 25.4987 34.502 22.9999 34.5C18.0146 34.5 13.7817 31.3212 12.187 26.8851L5.93677 31.7007C9.10885 37.9078 15.5508 42.1667 22.9999 42.1667Z" fill="#4CAF50"/>
<path d="M41.7939 19.2462H40.25V19.1667H23V26.8333H33.832C33.0761 28.9574 31.7145 30.8135 29.9153 32.1722L29.9182 32.1703L35.8503 37.19C35.4305 37.5715 42.1667 32.5833 42.1667 23C42.1667 21.7149 42.0344 20.4604 41.7939 19.2462Z" fill="#1976D2"/>
</svg>
