<svg width="148" height="148" viewBox="0 0 148 148" fill="none" xmlns="http://www.w3.org/2000/svg">
<circle cx="74" cy="74" r="73" fill="#FF513F" stroke="#D9D9D9" stroke-width="2"/>
<path d="M87.8262 75.1425H78.4275L80.1612 78.61H87.8262V75.1425ZM88.2369 94.4419C88.0848 93.1948 87.9783 91.9933 87.9175 90.8375C87.8567 89.6513 87.8262 88.541 87.8262 87.5069V85.4081H83.6287L88.2369 94.4419ZM68.4356 78.61L66.7019 75.1425H59.0369V78.61H68.4356ZM58.7175 59.4475C58.8392 60.6033 58.9152 61.7288 58.9456 62.8238C59.0065 63.9188 59.0369 64.9377 59.0369 65.8806V68.3444H63.2344L58.7175 59.4475ZM99.0956 75.1425V78.61H106.304V82.26C106.304 82.6554 106.213 83.0508 106.031 83.4463C105.848 83.8113 105.59 84.1458 105.255 84.45C104.951 84.7238 104.586 84.9519 104.16 85.1344C103.734 85.3169 103.263 85.4081 102.746 85.4081H99.0956V110H88.0087C86.9442 110 86.0469 109.833 85.3169 109.498C84.6173 109.133 83.9177 108.525 83.2181 107.673L71.9031 85.4081H59.0369V110H47.7675V85.4081H40.6044V78.61H47.7675V75.1425H40.6044V71.4925C40.6044 70.7017 40.9237 69.9869 41.5625 69.3481C42.2317 68.679 43.0833 68.3444 44.1175 68.3444H47.7675V43.7981H58.9456C59.5235 43.7981 60.0254 43.8285 60.4512 43.8894C60.8771 43.9198 61.2573 44.0263 61.5919 44.2088C61.9265 44.3608 62.2458 44.5738 62.55 44.8475C62.8542 45.1213 63.1887 45.4863 63.5537 45.9425L74.96 68.3444H87.8262V43.7981H99.0956V68.3444H106.304V75.1425H99.0956Z" fill="white"/>
</svg>
